# xmcd
#
# Track frame offsets: 
#        150
#        9905
#        20210
#        31277
#        46102
#        59011
#        68933
#        76960
#        90139
#        102102
#        113510
#        124322
#        134888
#        146578
#        156005
#        166748
#
# Disc length: 2365 seconds
#
# Revision: 0
# Processed by: cddbd v1.5.2PL0 Copyright (c) Steve Scherf et al.
# Submitted via: ExactAudioCopy v0.99pb5
#
DISCID=cc093b10
DTITLE=Various Artist - Country and Western Hits   cd8
DYEAR=2000
DGENRE=Country
TTITLE0=Gene Autrey - Sing me a song of the saddle
TTITLE1=John Horton - Tennessee jive
TTITLE2=JIm Reeves - Tahiti
TTITLE3=Marty Robbins - Tennessee toddy
TTITLE4=Ernest Tubb - The lovebug itch
TTITLE5=Hank Snow - Down the trail of atchin' hearts
TTITLE6=Hank Thompson - The grass looks greener
TTITLE7=Patsy Montano - Cowboy Rhythm
TTITLE8=Eddy Arnold - The rovin' gambler
TTITLE9=Cowboy Copas - I can't stop lovin' you
TTITLE10=Hank Williams - I can't ehlp it
TTITLE11=Sheb Wooley - You never can tell
TTITLE12=Tex Williams - Two texas boys
TTITLE13=Ferlin Huskey - Let's kiss and try again
TTITLE14=Don Gibson - A blue million tears
TTITLE15=Hardrock Gunter - Mountain dew
EXTD=
EXTT0=
EXTT1=
EXTT2=
EXTT3=
EXTT4=
EXTT5=
EXTT6=
EXTT7=
EXTT8=
EXTT9=
EXTT10=
EXTT11=
EXTT12=
EXTT13=
EXTT14=
EXTT15=
PLAYORDER=
